<?xml version="1.0" standalone="no"?>
<!DOCTYPE svg PUBLIC "-//W3C//DTD SVG 20010904//EN"
 "http://www.w3.org/TR/2001/REC-SVG-20010904/DTD/svg10.dtd">
<svg version="1.0" xmlns="http://www.w3.org/2000/svg"
 width="1754.000000pt" height="1754.000000pt" viewBox="0 0 1754.000000 1754.000000"
 preserveAspectRatio="xMidYMid meet">
<metadata>
Created by potrace 1.14, written by Peter Selinger 2001-2017
</metadata>
<g transform="translate(0.000000,1754.000000) scale(0.100000,-0.100000)"
fill="#000000" stroke="none">
<path d="M2243 17326 c-103 -33 -194 -114 -241 -214 l-27 -57 -3 -1537 -2
-1538 70 0 70 0 2 -6742 3 -6743 28 -61 c36 -77 113 -154 192 -191 l60 -28
6370 0 6370 0 60 28 c79 37 156 114 192 191 l28 61 3 6743 2 6742 70 0 70 0
-2 1538 -3 1537 -32 66 c-39 80 -111 150 -191 187 l-57 27 -6495 2 c-5352 1
-6502 -1 -6537 -11z m13125 -10103 l-3 -6708 -26 -56 c-34 -72 -96 -134 -168
-168 l-56 -26 -6350 0 -6350 0 -56 26 c-72 34 -134 96 -168 168 l-26 56 -3
6707 -2 6707 6605 1 6605 0 -2 -6707z"/>
<path d="M2627 11976 c-84 -30 -147 -89 -184 -172 -17 -36 -18 -95 -21 -779
-3 -750 0 -831 34 -896 25 -50 76 -99 128 -127 l51 -27 805 0 805 0 52 28 c59
30 125 106 145 165 17 51 24 1476 7 1575 -18 112 -102 207 -207 237 -24 6
-312 10 -807 10 -622 -1 -777 -3 -808 -14z m1507 -531 l18 -105 -84 -99 c-46
-54 -222 -263 -393 -465 l-310 -366 -70 0 -70 1 -213 249 -213 249 67 101 c37
55 70 100 73 99 3 0 67 -70 141 -155 93 -106 141 -154 155 -153 11 0 47 8 80
17 l60 17 285 357 285 357 86 0 86 1 17 -105z"/>
<path d="M8096 11364 c-20 -19 -21 -58 -3 -73 8 -6 28 -14 45 -17 l32 -6 0
-139 0 -139 -181 0 -180 0 3 43 3 42 114 3 c64 1 121 8 128 14 18 15 16 63 -4
79 -11 10 -53 15 -130 18 l-113 3 0 63 c0 67 -15 95 -49 95 -38 0 -53 -24 -58
-92 l-6 -66 -36 -7 c-47 -9 -61 -21 -61 -54 0 -37 17 -51 62 -51 l38 0 0 -45
0 -45 -342 0 -343 1 -27 59 c-30 68 -83 112 -161 135 -63 19 -100 19 -163 0
-76 -22 -129 -67 -161 -135 -15 -32 -31 -59 -35 -59 -5 -1 -8 25 -8 58 0 113
-58 214 -148 258 -54 26 -66 28 -210 31 -168 4 -202 -5 -202 -52 0 -24 28 -56
48 -56 9 0 12 -35 12 -120 l0 -120 -35 0 c-31 0 -35 -3 -35 -25 0 -22 4 -25
35 -25 l35 0 0 -55 c0 -39 -4 -55 -13 -55 -20 0 -47 -33 -47 -57 0 -45 27 -53
179 -53 78 0 163 5 189 12 84 20 154 87 182 173 11 34 14 37 21 20 4 -11 10
-32 13 -47 10 -47 68 -111 129 -142 112 -57 267 -31 346 59 16 19 35 54 42 77
6 24 13 49 15 56 3 9 80 12 342 12 l339 0 5 -63 c7 -82 28 -122 81 -149 55
-28 166 -28 253 0 52 16 64 17 79 5 23 -16 187 -18 216 -3 39 22 15 100 -32
100 -16 0 -19 7 -19 55 l0 55 105 0 105 0 0 -53 c0 -51 -1 -53 -32 -62 -27 -8
-34 -16 -36 -41 -5 -53 16 -64 124 -64 79 0 97 3 113 19 18 18 19 18 35 0 15
-17 33 -19 227 -19 126 0 218 4 230 10 13 7 19 21 19 45 0 45 -20 55 -114 55
l-76 0 0 55 0 56 183 -4 c195 -4 397 -33 426 -61 22 -23 -1 -43 -65 -56 -88
-19 -149 1 -202 65 -17 20 -56 19 -73 -1 -18 -21 -18 -129 -1 -146 7 -7 34
-14 60 -14 26 -1 75 -6 110 -12 103 -17 211 9 262 63 29 31 37 93 16 133 l-17
32 286 0 285 0 0 25 0 25 -322 0 c-317 0 -345 2 -518 38 -46 10 -51 36 -9 51
65 22 160 4 186 -36 20 -30 77 -32 93 -4 14 27 13 104 -2 123 -17 20 -39 27
-58 18 -9 -5 -40 -2 -70 7 -162 43 -323 -47 -291 -163 l9 -34 -143 0 -144 0
-3 98 -3 97 -111 0 c-123 -1 -144 -9 -144 -54 0 -41 18 -51 87 -51 l63 0 0
-45 0 -45 -135 0 -135 0 0 41 c0 134 -151 206 -302 144 -17 -7 -18 2 -18 99
l0 106 -84 0 c-64 0 -88 -4 -100 -16z m-1836 -156 c57 -30 90 -89 90 -165 l0
-53 -140 0 -140 0 0 120 0 120 73 0 c56 0 83 -5 117 -22z m530 -124 c32 -7
100 -62 100 -83 0 -8 -45 -11 -151 -11 l-150 0 22 31 c23 33 88 68 125 69 12
0 36 -3 54 -6z m1663 -5 c29 -16 37 -28 37 -61 l0 -28 -105 0 c-90 0 -105 2
-105 16 0 16 32 47 74 71 27 16 71 16 99 2z m-2113 -150 c0 -24 -42 -68 -80
-83 -25 -10 -70 -16 -115 -16 l-75 0 0 55 0 55 135 0 c91 0 135 -4 135 -11z
m559 -19 c-31 -87 -159 -123 -248 -69 -28 17 -71 72 -71 92 0 4 74 7 164 7
l165 0 -10 -30z m1271 -25 c0 -47 -3 -55 -19 -55 -10 0 -24 7 -31 15 -17 20
-39 19 -96 -7 -55 -24 -175 -31 -195 -11 -6 6 -14 35 -17 62 l-5 51 182 0 181
0 0 -55z m700 0 l0 -55 -80 0 c-67 0 -83 -3 -97 -20 -17 -19 -17 -19 -30 0 -8
11 -25 20 -39 20 -23 0 -24 3 -24 55 l0 55 135 0 135 0 0 -55z"/>
<path d="M8840 11325 l0 -55 65 0 65 0 0 55 0 55 -65 0 -65 0 0 -55z"/>
<path d="M9993 10843 c-27 -5 -53 -39 -53 -69 0 -40 32 -67 80 -67 33 0 48 6
62 23 47 58 -7 128 -89 113z"/>
<path d="M15009 9783 l-24 -28 28 24 c25 23 32 31 24 31 -2 0 -14 -12 -28 -27z"/>
<path d="M2509 8963 l-24 -28 28 24 c25 23 32 31 24 31 -2 0 -14 -12 -28 -27z"/>
<path d="M2634 7759 c-53 -15 -127 -71 -160 -121 -21 -30 -36 -70 -43 -111
-15 -87 -15 -1450 0 -1532 18 -101 67 -167 153 -213 l51 -27 805 0 805 0 52
28 c59 30 125 106 145 165 17 51 24 1476 7 1575 -18 112 -102 207 -207 237
-47 13 -1564 12 -1608 -1z m1500 -534 l18 -105 -84 -99 c-46 -54 -222 -263
-393 -465 l-310 -366 -70 0 -70 1 -213 249 -213 249 67 101 c37 55 70 100 73
99 3 0 67 -70 141 -154 92 -106 141 -154 155 -154 11 0 47 8 80 17 l60 17 285
357 285 357 86 0 86 1 17 -105z"/>
<path d="M6458 7140 c-12 -19 -24 -20 -270 -20 l-258 0 0 -125 c0 -121 1 -125
25 -141 51 -33 85 12 85 114 l0 42 50 0 50 0 0 -125 0 -125 -125 0 -125 0 0
-25 0 -25 125 0 125 0 0 -50 0 -50 -50 0 c-60 0 -95 -27 -85 -63 13 -43 30
-47 195 -47 139 0 159 2 173 18 42 46 4 92 -75 92 l-48 0 0 50 0 50 140 0 140
0 0 -50 c0 -43 -3 -50 -20 -50 -31 0 -62 -37 -55 -63 12 -39 34 -47 130 -47
103 0 128 11 128 55 0 30 -25 55 -55 55 -15 0 -18 8 -18 50 l0 50 110 0 110 0
0 -50 c0 -46 -2 -50 -23 -50 -49 0 -74 -61 -39 -93 28 -26 202 -24 225 1 33
37 8 92 -41 92 -20 0 -22 5 -22 50 0 46 2 50 23 50 19 0 26 -8 36 -42 19 -64
65 -121 122 -153 70 -38 253 -36 358 4 48 18 49 18 65 0 13 -16 30 -19 109
-19 102 0 137 14 137 54 0 28 -29 56 -58 56 -20 0 -22 5 -22 50 l0 50 110 0
110 0 0 -48 c0 -44 -2 -49 -30 -59 -26 -10 -30 -16 -30 -47 0 -47 19 -56 119
-56 87 0 111 12 111 55 0 26 -24 55 -46 55 -10 0 -14 13 -14 50 l0 50 294 0
293 0 6 -42 c8 -61 53 -118 119 -152 47 -23 69 -28 130 -29 47 0 87 6 113 17
25 11 41 13 43 6 5 -13 147 -13 173 0 12 7 19 21 19 40 l0 30 45 -34 c57 -44
105 -60 180 -59 68 1 133 22 182 59 35 27 83 109 83 144 0 20 5 20 344 20
l344 0 4 -65 c5 -76 25 -110 84 -140 53 -26 167 -25 249 3 52 18 62 19 76 6
11 -10 42 -14 111 -14 79 0 98 3 111 18 33 37 8 92 -41 92 -20 0 -22 5 -22 50
l0 50 110 0 110 0 0 -50 c0 -42 -3 -50 -18 -50 -30 0 -54 -25 -54 -55 0 -44
24 -55 125 -55 91 0 127 10 127 35 0 21 8 19 41 -9 55 -47 174 -54 271 -17 17
6 29 7 33 1 4 -6 41 -10 84 -10 63 0 81 4 94 18 35 38 5 92 -50 92 -21 0 -23
5 -23 50 l0 50 110 0 110 0 0 -55 c0 -95 41 -146 133 -165 96 -20 287 30 299
77 7 25 -8 62 -28 70 -9 3 -46 -5 -83 -18 -75 -26 -169 -31 -194 -10 -11 9
-17 29 -17 57 l0 44 405 0 405 0 0 25 0 25 -405 0 -405 0 0 50 0 50 114 0 c91
0 118 3 130 16 20 19 20 44 2 69 -11 16 -31 19 -130 23 l-116 5 0 58 c0 46 -5
64 -20 79 -48 48 -90 12 -90 -77 l0 -61 -40 -7 c-45 -8 -70 -27 -70 -55 0 -30
28 -50 71 -50 l39 0 0 -50 0 -50 -109 0 -109 0 -4 65 c-4 69 -24 102 -80 131
-44 23 -135 27 -222 10 -90 -18 -106 -28 -106 -66 0 -41 22 -54 83 -46 162 19
166 19 192 2 14 -9 25 -24 25 -34 0 -16 -11 -18 -92 -18 -75 0 -103 -4 -142
-22 -34 -15 -68 -22 -111 -22 l-62 0 -6 57 c-7 62 -26 96 -76 130 -56 38 -123
40 -228 8 -23 -7 -23 -7 -23 99 l0 106 -76 0 c-91 0 -114 -10 -114 -50 0 -33
31 -60 68 -60 l23 0 -2 -145 -1 -145 -179 0 -179 0 0 50 0 50 118 0 c127 0
142 5 142 51 0 45 -22 54 -147 58 l-113 3 0 63 c0 65 -17 95 -53 95 -36 0 -57
-37 -57 -99 l0 -58 -41 -9 c-53 -11 -73 -39 -56 -74 10 -20 21 -26 55 -28 l42
-3 0 -50 0 -49 -343 0 -342 0 -17 48 c-37 104 -133 166 -258 167 -66 0 -82 -4
-130 -31 -62 -35 -106 -84 -125 -140 -7 -22 -20 -40 -29 -42 -14 -3 -16 19
-16 197 l0 201 -84 0 c-92 0 -116 -11 -116 -54 0 -29 17 -44 58 -52 31 -6 32
-8 32 -61 0 -49 -2 -54 -17 -48 -46 19 -109 35 -138 35 -106 0 -222 -82 -247
-174 l-12 -46 -293 0 -293 0 0 33 c0 52 -18 101 -47 130 -61 58 -153 72 -232
37 -52 -24 -51 -24 -51 -5 0 30 -144 14 -161 -17 -16 -30 -3 -67 26 -74 22 -6
25 -11 25 -55 0 -49 0 -49 -33 -49 -31 0 -35 4 -45 38 -41 135 -197 211 -346
168 -75 -22 -159 -100 -175 -163 -10 -36 -16 -43 -36 -43 -23 0 -25 3 -25 54
0 39 -6 62 -22 86 -46 67 -155 97 -244 66 -26 -9 -49 -16 -51 -16 -2 0 -3 47
-3 105 l0 105 -85 0 c-74 0 -86 -3 -97 -20z m58 -90 c11 0 14 -26 14 -145 l0
-145 -140 0 -140 0 0 125 0 125 55 0 55 0 0 -65 c0 -68 20 -105 55 -105 8 0
24 9 35 20 17 17 20 33 20 111 0 79 2 90 16 85 9 -3 22 -6 30 -6z m298 -192
c22 -10 46 -56 46 -90 0 -5 -49 -8 -110 -8 -100 0 -110 2 -110 18 0 10 12 30
28 45 46 44 99 57 146 35z m527 1 c35 -12 79 -46 79 -61 0 -4 -64 -8 -142 -8
l-141 0 24 26 c46 50 111 66 180 43z m583 -10 c19 -15 26 -30 26 -55 l0 -34
-110 0 c-100 0 -110 2 -110 18 0 37 82 92 136 92 17 0 43 -9 58 -21z m1039 7
c32 -13 87 -68 87 -87 0 -5 -63 -9 -145 -9 -82 0 -145 4 -145 9 0 18 54 74 85
87 39 17 78 17 118 0z m586 -8 c23 -13 51 -38 63 -55 l20 -33 -156 0 c-89 0
-156 4 -156 9 0 5 12 24 27 42 52 61 129 75 202 37z m1645 1 c19 -15 26 -30
26 -55 l0 -34 -110 0 c-100 0 -110 2 -110 18 0 37 82 92 136 92 17 0 43 -9 58
-21z m-3572 -187 c-3 -44 -6 -48 -38 -58 -19 -6 -34 -7 -34 -3 0 5 -9 13 -20
19 -16 8 -46 6 -125 -10 -89 -19 -112 -20 -158 -10 -53 11 -107 46 -107 70 0
6 69 10 205 10 176 0 205 2 205 15 0 11 11 15 38 15 l37 0 -3 -48z m1427 19
c-24 -67 -111 -104 -192 -82 -49 14 -80 40 -96 84 l-11 27 155 0 154 0 -10
-29z m160 -13 c7 -24 18 -49 25 -57 9 -12 8 -13 -7 -8 -10 4 -27 7 -38 7 -16
0 -19 7 -19 50 0 63 22 68 39 8z m421 37 c0 -20 -35 -66 -62 -83 -46 -28 -90
-35 -137 -22 -46 12 -106 60 -114 90 -5 19 0 20 154 20 87 0 159 -2 159 -5z
m1267 -45 c0 -41 -3 -50 -17 -50 -10 0 -23 7 -30 15 -17 20 -35 19 -100 -6
-33 -13 -80 -22 -118 -23 -74 -1 -92 14 -92 76 l0 38 179 0 178 0 0 -50z m503
31 c-5 -11 -10 -36 -10 -56 0 -30 -3 -36 -16 -31 -9 3 -22 6 -30 6 -10 0 -14
14 -14 50 l0 50 40 0 c37 0 40 -2 30 -19z m303 3 c30 -5 37 -11 37 -29 0 -44
-150 -90 -205 -64 -93 45 34 115 168 93z"/>
<path d="M12720 6623 c-31 -12 -50 -37 -50 -68 0 -53 54 -83 111 -63 60 21 61
100 3 124 -36 15 -41 15 -64 7z"/>
<path d="M15009 5553 l-24 -28 28 24 c25 23 32 31 24 31 -2 0 -14 -12 -28 -27z"/>
<path d="M2509 4743 l-24 -28 28 24 c25 23 32 31 24 31 -2 0 -14 -12 -28 -27z"/>
<path d="M2613 3529 c-65 -25 -127 -85 -159 -152 l-24 -52 0 -785 0 -785 24
-52 c32 -69 95 -127 163 -153 54 -20 68 -20 841 -18 783 3 787 3 827 24 58 32
114 90 141 148 l24 51 0 785 0 785 -24 52 c-32 68 -95 127 -162 153 -53 20
-73 20 -827 19 -746 0 -774 -1 -824 -20z m1537 -989 l0 -720 -710 0 -710 0 0
720 0 720 710 0 710 0 0 -720z"/>
<path d="M6482 2933 c-12 -3 -28 -13 -35 -24 -11 -18 -26 -19 -269 -19 l-258
0 0 -112 c0 -132 10 -162 57 -166 45 -4 63 26 63 105 l0 63 50 0 50 0 0 -200
0 -200 -54 0 c-61 0 -86 -16 -86 -55 0 -50 18 -55 191 -55 92 0 169 4 180 10
13 7 19 21 19 45 0 42 -20 55 -84 55 l-46 0 0 200 0 200 50 0 50 0 0 -69 c0
-76 13 -101 55 -101 44 0 55 23 55 121 l0 89 30 0 30 0 0 -220 0 -220 -24 0
c-31 0 -56 -25 -56 -55 0 -46 23 -55 135 -55 81 0 107 3 119 16 34 33 7 94
-42 94 -21 0 -22 4 -22 95 l0 95 42 30 c32 23 52 30 88 30 72 0 80 -15 80
-143 0 -105 0 -107 -23 -107 -31 0 -47 -18 -47 -55 0 -49 14 -55 123 -55 116
0 137 8 137 53 0 38 -15 57 -46 57 -22 0 -22 4 -26 123 -3 137 -12 163 -70
210 -32 26 -48 31 -110 35 -53 3 -84 0 -111 -11 l-37 -16 0 110 0 109 -67 -1
c-38 -1 -78 -4 -91 -6z"/>
<path d="M9215 2933 c-32 -8 -45 -23 -45 -54 0 -34 23 -59 56 -59 l24 0 0
-220 c0 -121 -4 -220 -9 -220 -5 0 -14 7 -22 16 -15 18 -62 15 -124 -9 -48
-19 -156 -22 -173 -5 -8 8 -12 50 -12 124 l0 112 116 4 c101 3 117 6 130 22
19 27 18 52 -6 76 -18 18 -33 20 -130 20 l-110 0 0 53 c0 70 -17 101 -57 105
-44 4 -63 -26 -63 -100 l0 -58 -35 0 c-47 0 -79 -32 -70 -68 9 -37 16 -43 64
-49 l41 -6 0 -127 c0 -115 2 -130 23 -161 12 -19 42 -44 67 -57 39 -21 55 -23
125 -19 44 3 101 13 127 22 35 12 52 14 67 6 11 -6 65 -11 120 -11 97 0 101 1
118 26 15 24 15 29 2 53 -9 16 -25 27 -42 29 l-27 3 0 93 c0 83 2 95 23 113
34 32 62 43 106 43 69 0 81 -21 81 -144 l0 -105 -27 -3 c-17 -2 -33 -13 -42
-29 -13 -24 -13 -29 2 -53 17 -25 21 -26 118 -26 118 0 139 8 139 53 0 38 -15
57 -46 57 -21 0 -22 5 -26 123 -5 137 -16 169 -73 213 -46 35 -158 45 -218 21
l-37 -16 0 110 0 109 -67 -1 c-38 -1 -77 -4 -88 -6z"/>
<path d="M11945 2933 c-32 -8 -45 -23 -45 -54 0 -34 23 -59 56 -59 l24 0 0
-220 c0 -181 -2 -220 -14 -220 -8 0 -16 7 -20 15 -8 21 -51 19 -115 -5 -38
-15 -71 -20 -115 -18 -78 4 -86 17 -86 151 l0 97 110 0 c105 0 112 1 136 25
18 19 23 31 19 48 -13 41 -33 47 -152 47 l-113 0 0 61 c0 76 -12 99 -50 99
-46 0 -60 -23 -60 -96 l0 -64 -35 0 c-22 0 -43 -8 -55 -20 -40 -40 -17 -88 48
-97 l42 -6 0 -130 c0 -113 3 -134 20 -162 43 -70 161 -93 294 -56 56 15 82 18
96 11 10 -5 64 -10 119 -10 97 0 101 1 118 26 15 24 15 29 2 53 -9 16 -25 27
-42 29 l-27 3 0 93 c0 83 2 95 23 113 34 32 62 43 106 43 69 0 81 -21 81 -144
l0 -105 -27 -3 c-17 -2 -33 -13 -42 -29 -13 -24 -13 -29 2 -53 17 -25 21 -26
118 -26 118 0 139 8 139 53 0 38 -15 57 -46 57 -21 0 -22 5 -26 123 -5 137
-16 169 -73 213 -46 35 -158 45 -218 21 l-37 -16 0 110 0 109 -67 -1 c-38 -1
-77 -4 -88 -6z"/>
<path d="M7174 2734 c-97 -35 -164 -127 -164 -225 0 -84 16 -126 70 -180 55
-55 119 -79 211 -79 72 0 205 25 234 44 19 13 23 12 33 -5 11 -17 25 -19 113
-19 118 0 139 8 139 53 0 39 -15 57 -47 57 -22 0 -23 3 -23 94 l0 94 35 31
c29 25 44 31 83 31 79 0 86 -10 90 -139 4 -105 3 -111 -15 -111 -25 0 -53 -30
-53 -57 0 -41 30 -53 128 -53 88 0 92 1 109 26 15 24 15 29 2 53 -8 14 -24 27
-36 29 -21 3 -22 9 -25 135 -3 120 -5 135 -27 166 -46 64 -164 91 -249 56 -24
-10 -38 -12 -40 -5 -6 17 -134 12 -160 -6 -34 -23 -30 -70 8 -92 l30 -17 0
-116 0 -117 -32 -5 c-20 -3 -39 1 -49 9 -20 17 -48 17 -124 -1 -114 -28 -205
-18 -253 28 l-24 22 209 5 208 5 3 37 c7 89 -48 188 -130 233 -43 24 -67 29
-133 32 -53 2 -94 -2 -121 -13z m208 -129 c56 -41 47 -45 -98 -45 -148 0 -157
5 -93 48 29 20 44 23 99 20 45 -2 74 -10 92 -23z"/>
<path d="M9907 2736 c-61 -22 -120 -73 -149 -131 -27 -52 -28 -146 -1 -206 28
-62 90 -115 160 -135 69 -20 186 -15 281 11 75 21 98 47 82 89 -14 38 -34 42
-126 23 -138 -29 -212 -21 -262 26 l-24 22 209 5 208 5 -3 60 c-7 146 -118
246 -275 245 -34 -1 -79 -7 -100 -14z m181 -120 c15 -8 36 -23 46 -35 l19 -21
-143 0 c-132 0 -141 1 -129 17 42 51 146 70 207 39z"/>
<path d="M11013 2737 c-103 -38 -175 -135 -176 -236 -1 -99 46 -170 147 -224
33 -17 58 -22 126 -22 73 0 92 4 135 27 94 49 135 115 135 215 0 63 -25 131
-63 172 -12 13 -49 37 -82 52 -48 23 -73 29 -125 28 -36 0 -79 -6 -97 -12z
m195 -134 c14 -10 34 -36 45 -57 42 -81 -23 -166 -131 -174 -68 -4 -115 18
-150 69 -49 71 4 168 103 189 41 8 102 -4 133 -27z"/>
<path d="M12650 2741 c-49 -15 -87 -40 -127 -84 -74 -81 -81 -206 -16 -297 71
-98 203 -132 375 -96 99 22 128 39 128 79 0 60 -32 69 -145 42 -90 -22 -170
-19 -216 7 -79 44 -66 48 156 48 l205 0 0 58 c-1 105 -62 196 -156 232 -56 20
-154 26 -204 11z m180 -133 c63 -43 53 -48 -96 -48 l-137 0 24 26 c32 35 53
43 120 43 42 1 64 -5 89 -21z"/>
<path d="M13355 2729 c-22 -12 -44 -25 -49 -30 -17 -16 -26 -10 -26 16 0 25 0
25 -95 25 -82 0 -98 -3 -115 -20 -40 -40 -17 -88 48 -97 l42 -6 0 -118 0 -119
-49 0 c-55 0 -81 -17 -81 -55 0 -51 15 -55 226 -55 116 0 203 4 215 10 13 7
19 21 19 45 0 46 -20 55 -124 55 l-86 0 0 78 0 77 55 40 c77 56 100 63 137 42
38 -22 71 -22 91 1 34 37 16 82 -43 112 -51 26 -115 26 -165 -1z"/>
<path d="M13779 2381 c-17 -13 -23 -29 -23 -56 0 -27 6 -43 23 -56 53 -43 141
-8 141 56 0 64 -88 99 -141 56z"/>
<path d="M15009 1333 l-24 -28 28 24 c15 14 27 26 27 28 0 8 -8 1 -31 -24z"/>
<path d="M2509 523 l-24 -28 28 24 c15 14 27 26 27 28 0 8 -8 1 -31 -24z"/>
</g>
</svg>
